<?xml version="1.0" encoding="utf-8"?>
<!-- Generator: Adobe Illustrator 22.1.0, SVG Export Plug-In . SVG Version: 6.00 Build 0)  -->
<svg version="1.1" id="Layer_1" xmlns="http://www.w3.org/2000/svg" xmlns:xlink="http://www.w3.org/1999/xlink" x="0px" y="0px"
	 viewBox="0 0 2000 520.7" style="enable-background:new 0 0 2000 520.7;" xml:space="preserve">
<style type="text/css">
	.st0{fill:#E0E0E0;}
	.st1{fill:#8EC63F;}
	.st2{font-family:'APompadourBoldSample';}
	.st3{font-size:205.7454px;}
	.st4{letter-spacing:5;}
</style>
<path class="st0" d="M321.9,198.2c3.3,0.4,6.5,0.7,9.8,1.1c7.9,1.1,15.6,2.6,22.8,6.3c2.1,1.1,4.1,2.3,5.6,4.2
	c2.4,2.8,2.3,5.8-0.1,8.6c-2.5,2.8-5.7,4.4-9.1,5.7c-7.9,3.1-16.2,4.5-24.6,5.2c-13.7,1.1-27.2,0.6-40.6-2.6
	c-4.4-1-8.7-2.4-12.6-4.6c-1.5-0.8-2.9-1.8-4.2-3c-3.6-3.5-3.6-7.2,0.1-10.5c4-3.6,8.9-5.3,13.9-6.7c7-2,14.1-3,21.3-3.5
	c0.6,0,1.3,0.2,1.8-0.3C311.2,198.2,316.6,198.2,321.9,198.2z"/>
<path class="st1" d="M266.2,280.3c6.4,8.2,15.5,11.2,24.9,13.2c18.6,4,37.2,3.5,55.3-2.9c5.6-2,10.8-4.7,14.5-9.7
	c0.6-0.8,0.9-0.4,1.2,0.2c0.6,1.3,0.9,2.6,0.9,4c0,4.9,0,9.9,0,14.8c0,3.2-1.5,5.7-3.7,7.9c-4.6,4.6-10.4,7.1-16.5,9
	c-12.3,3.8-24.9,4.6-37.6,3.7c-9.5-0.7-18.7-2.5-27.4-6.4c-3.7-1.7-7.1-3.7-9.8-6.8c-2.1-2.4-3.2-5.1-3.2-8.3c0.1-4.5,0-9,0-13.5
	C264.8,283.7,265.1,282,266.2,280.3z"/>
<path class="st0" d="M266.3,249.4c5.3,7.1,12.7,10.1,20.6,12.2c18.9,5,37.8,4.9,56.5-0.7c6.2-1.8,12-4.5,16.5-9.4
	c0.6-0.6,1-2,1.7-1.8c1,0.3,1,1.7,1.3,2.8c0.4,1.7,0.2,3.4,0.2,5.1c0,3.4-0.1,6.7,0,10.1c0.2,4.2-1.5,7.5-4.6,10.2
	c-4.7,4.2-10.4,6.7-16.5,8.3c-20.5,5.5-40.9,5.4-61-1.6c-4.9-1.7-9.4-4.1-13-8c-2.2-2.4-3.3-5.2-3.3-8.5c0.1-4.4,0-8.9,0-13.3
	C264.8,253,265.1,251.2,266.3,249.4z"/>
<path class="st1" d="M266.1,219.7c1.5,4.4,5.1,6.4,8.9,8.2c6.8,3.2,14.1,4.7,21.4,5.6c14.5,1.8,29,1.6,43.3-1.4
	c5.8-1.2,11.4-2.8,16.5-6c2.9-1.8,4.4-3.5,5.4-6.3c1,1.4,1.3,2.9,1.3,4.4c0,5,0.1,9.9,0,14.9c-0.1,4.2-2.5,7.2-5.6,9.7
	c-5.8,4.6-12.6,7-19.7,8.6c-18.8,4.1-37.4,3.8-55.7-2.4c-4.8-1.6-9.4-3.9-13.1-7.5c-2.8-2.7-4.3-5.8-4.2-9.8c0.1-4.3,0-8.6,0-12.9
	C264.8,222.9,265.1,221.3,266.1,219.7z"/>
<path class="st0" d="M380.9,353.9c16.3,0.9,25-19.1,13.2-30.4c-12.4-11.9-32.8-0.8-29.6,16c-73.7,47-168.5-23.3-141.5-108.7
	l-18.2-12.2C163.9,327.3,289.8,419.2,380.9,353.9z M375.7,330.4c7.6-7.9,19.7,3.1,12.6,11.4C380.8,350.5,367.6,338.8,375.7,330.4z"
	/>
<path class="st1" d="M232.2,193.7c11.7,11.2,31,2,29.9-14c73.6-47.4,168.9,22.8,141.9,108.5l18.2,12.2
	c39.7-105.6-80.8-200.7-174-136.8C230.7,160,219.4,181.4,232.2,193.7z M250.6,186.8c-7.8,8.1-20.1-3.7-12.3-11.8
	C246.1,166.9,258.4,178.7,250.6,186.8z"/>
<text transform="matrix(1 0 0 1 500.2032 330.8743)"><tspan x="0" y="0" class="st0 st2 st3 st4">Data</tspan><tspan x="463.1" y="0" class="st1 st2 st3 st4">Controller</tspan></text>
</svg>
