<svg width="64" height="52" viewBox="0 0 64 52" fill="none" xmlns="http://www.w3.org/2000/svg">
<path d="M0 36.7183V19.5922H2.20128V21.5628H2.24793C3.33723 20.0095 4.98252 19.2455 6.81314 19.2455C10.637 19.2455 13.4662 22.212 13.4662 26.1746C13.4662 29.7905 10.6597 32.7558 6.97578 32.7558C5.02917 32.7558 3.29184 31.9665 2.45596 30.5759H2.40931V36.7183H0ZM11.0543 26.0334C11.0543 23.6934 9.19976 21.4468 6.62907 21.4468C4.2185 21.4468 2.36392 23.6014 2.36392 25.9893C2.36392 28.4919 4.2185 30.5532 6.72111 30.5532C9.19976 30.5532 11.0543 28.4906 11.0543 26.0334Z" fill="#114C8C"/>
<path d="M23.6631 32.4305V25.4547C23.6631 22.6974 22.599 21.4468 20.4671 21.4468C18.3578 21.4468 17.0832 22.9748 17.0832 25.4787V32.4305H14.6714V15.2816H17.0832V20.9601H17.1286C17.8926 19.8242 19.1219 19.2455 20.7218 19.2455C23.7804 19.2455 26.075 21.1933 26.075 24.7134V32.4305H23.6631Z" fill="#114C8C"/>
<path d="M36.7601 32.4305V31.0399H36.7134C36.0893 32.1292 34.6281 32.7545 32.9362 32.7545C30.1789 32.7545 27.583 31.2719 27.583 26.7521V19.5909H29.9948V26.5667C29.9948 29.2534 30.9908 30.552 33.1909 30.552C35.4161 30.552 36.552 28.9987 36.552 26.5201V19.5922H38.9614V32.4305H36.7601Z" fill="#114C8C"/>
<path d="M46.3049 23C46.1902 22.0721 45.6582 21.4468 44.6596 21.4468C43.733 21.4468 43.1543 22.0708 43.1543 22.8134C43.1543 23.904 44.2675 24.2267 45.5409 24.6214C47.3488 25.1786 49.0168 26.2667 49.0168 28.6533C49.0168 31.1332 47.2089 32.7558 44.7076 32.7558C42.3903 32.7558 40.165 31.1798 40.165 28.2133H42.5744C42.6916 29.7665 43.4783 30.5532 44.7542 30.5532C45.8662 30.5532 46.6075 29.8359 46.6075 28.7932C46.6075 27.9119 45.9355 27.3333 44.4302 26.8453C41.277 25.8493 40.745 24.4827 40.745 23.0227C40.745 20.7508 42.6676 19.2455 44.7769 19.2455C46.9088 19.2455 48.6474 20.7281 48.7168 23H46.3049Z" fill="#114C8C"/>
<path d="M52.3317 27.0546C52.8889 29.1866 54.5809 30.5532 56.5514 30.5532C58.0568 30.5532 59.4701 29.7665 60.2127 28.3986H62.622C61.626 31.0399 59.2154 32.7558 56.4594 32.7558C52.8435 32.7558 49.9224 29.5572 49.9224 26.1267C49.9224 22.0721 52.981 19.2455 56.3888 19.2455C60.166 19.2455 63.038 22.1641 63.038 25.8493C63.038 26.244 63.038 26.6134 62.97 27.0546H52.3317ZM60.6287 25.2C60.4434 23.0227 58.5207 21.4468 56.4581 21.4468C54.4876 21.4468 52.5183 23 52.3317 25.2H60.6287Z" fill="#114C8C"/>
<path d="M10.5351 15.2817C14.4447 7.65911 22.3799 2.42696 31.5191 2.42696C40.6584 2.42696 48.5936 7.65911 52.5032 15.2817H55.1974C51.1063 6.27858 42.0351 0 31.5191 0C21.0031 0 11.932 6.27858 7.84082 15.2817H10.5351Z" fill="#00B0AD"/>
<path d="M52.5032 36.7183C48.5936 44.3409 40.6584 49.573 31.5191 49.573C22.3799 49.573 14.4434 44.3409 10.5351 36.7183H7.84082C11.932 45.7201 21.0031 52 31.5191 52C42.0351 52 51.1063 45.7201 55.1974 36.7183H52.5032Z" fill="#00B0AD"/>
</svg>
