<?xml version="1.0" encoding="utf-8"?>
<!-- Generator: Adobe Illustrator 19.0.0, SVG Export Plug-In . SVG Version: 6.00 Build 0)  -->
<svg version="1.1" id="Layer_1" xmlns="http://www.w3.org/2000/svg" xmlns:xlink="http://www.w3.org/1999/xlink" x="0px" y="0px"
	 viewBox="0 0 500 104.7" style="enable-background:new 0 0 500 104.7;" xml:space="preserve">
<style type="text/css">
	.st0{fill:#8AC640;}
	.st1{fill:url(#XMLID_28_);}
	.st2{fill:url(#XMLID_29_);}
	.st3{fill:url(#XMLID_30_);}
	.st4{fill:url(#XMLID_31_);}
</style>
<g id="XMLID_364_">
	<g id="XMLID_378_">
		<path id="XMLID_391_" class="st0" d="M127.1,65.3l7.4-8.4c0.9,2.3,2.5,4.1,4.5,5.5c2.1,1.3,4.4,2,7,2c3.1,0,5.6-0.7,7.4-2.2
			c1.8-1.5,2.7-3.5,2.7-6c0-3-3-5.9-9.1-8.9c-2-0.9-3.5-1.7-4.7-2.3c-5.5-2.9-9.3-5.6-11.4-8.4c-2.1-2.7-3.2-6-3.2-9.7
			c0-5.2,2-9.4,6.1-12.7c4.1-3.3,9.4-5,15.9-5c3.8,0,7.1,0.7,9.8,2c2.8,1.3,5.2,3.4,7.3,6.2l-7.9,7.6c-0.9-1.8-2.2-3.2-3.7-4.1
			c-1.6-0.9-3.4-1.3-5.6-1.3c-2.7,0-4.8,0.7-6.4,2c-1.6,1.3-2.4,3-2.4,5.2c0,3.3,3.2,6.3,9.7,9.1c1.3,0.5,2.3,1,3,1.3
			c5.3,2.4,9.2,5.2,11.8,8.2c2.6,3.1,3.8,6.5,3.8,10.4c0,5.9-2,10.6-6,14.1c-4,3.5-9.4,5.2-16.1,5.2c-4.8,0-8.9-0.8-12.3-2.5
			C131.4,70.8,128.8,68.4,127.1,65.3z"/>
		<path id="XMLID_388_" class="st0" d="M172.8,73.3l23.8-62.6h15.3l24.2,62.6h-15.2l-5.1-13.3h-24.3l-4.4,13.3H172.8z M212.7,49.4
			l-7-20.2c-0.2-0.6-0.5-1.6-0.8-3.1c-0.3-1.5-0.6-3.2-1-5.3c-0.4,2-0.7,3.8-1.1,5.5c-0.3,1.6-0.6,2.7-0.8,3.2l-6.8,20H212.7z"/>
		<path id="XMLID_379_" class="st0" d="M238.7,65.3l7.4-8.4c0.9,2.3,2.5,4.1,4.5,5.5c2.1,1.3,4.4,2,7,2c3.1,0,5.6-0.7,7.4-2.2
			c1.8-1.5,2.7-3.5,2.7-6c0-3-3-5.9-9.1-8.9c-2-0.9-3.5-1.7-4.7-2.3c-5.5-2.9-9.3-5.6-11.4-8.4c-2.1-2.7-3.2-6-3.2-9.7
			c0-5.2,2-9.4,6.1-12.7c4.1-3.3,9.4-5,15.9-5c3.8,0,7.1,0.7,9.8,2c2.8,1.3,5.2,3.4,7.3,6.2l-7.9,7.6c-0.9-1.8-2.2-3.2-3.7-4.1
			c-1.6-0.9-3.4-1.3-5.6-1.3c-2.7,0-4.8,0.7-6.4,2c-1.6,1.3-2.4,3-2.4,5.2c0,3.3,3.2,6.3,9.7,9.1c1.3,0.5,2.3,1,3,1.3
			c5.3,2.4,9.2,5.2,11.8,8.2c2.6,3.1,3.8,6.5,3.8,10.4c0,5.9-2,10.6-6,14.1c-4,3.5-9.4,5.2-16.1,5.2c-4.8,0-8.9-0.8-12.3-2.5
			C242.9,70.8,240.3,68.4,238.7,65.3z"/>
	</g>
	<g id="XMLID_374_">
		<linearGradient id="XMLID_28_" gradientUnits="userSpaceOnUse" x1="112.1533" y1="93.6769" x2="73.1572" y2="67.4611">
			<stop  offset="3.584662e-003" style="stop-color:#8AC640"/>
			<stop  offset="0.3822" style="stop-color:#87C240"/>
			<stop  offset="0.5398" style="stop-color:#80B843"/>
			<stop  offset="0.6564" style="stop-color:#74AB48"/>
			<stop  offset="0.7528" style="stop-color:#659A4E"/>
			<stop  offset="0.8366" style="stop-color:#518654"/>
			<stop  offset="0.9118" style="stop-color:#3A6F58"/>
			<stop  offset="0.979" style="stop-color:#1E5757"/>
			<stop  offset="1" style="stop-color:#114F55"/>
		</linearGradient>
		<path id="XMLID_377_" class="st1" d="M116.9,99.8c-0.8,0-26.9,0.1-39.9,0c-0.8,0-2,0-3.1-1.7c-2.6-4-6.6-10.7-8.9-14.4
			c-0.9-1.5-0.9-3.4,0-4.9l7.4-12.3c1.7,2.7,10.7,17.7,11,17.9l0,0l0,0c0.3,0.3,0.6,0.6,0.9,0.6c1.8,0.3,3.8,0.1,6.1,0.1
			c-0.6-1-9.2-15.5-13.3-22.2c-0.9-1.4-0.9-3.1,0-4.5l8.2-13.5C97,65.1,115.7,97.8,116.9,99.8z"/>
		<linearGradient id="XMLID_29_" gradientUnits="userSpaceOnUse" x1="66.3815" y1="57.7613" x2="67.7185" y2="57.7613">
			<stop  offset="2.153458e-007" style="stop-color:#003E4D"/>
			<stop  offset="0.1387" style="stop-color:#005058"/>
			<stop  offset="0.4248" style="stop-color:#15776E"/>
			<stop  offset="0.6734" style="stop-color:#26977D"/>
			<stop  offset="0.8722" style="stop-color:#31AD86"/>
			<stop  offset="0.9964" style="stop-color:#34B98B"/>
		</linearGradient>
		<polygon id="XMLID_376_" class="st2" points="67.7,58.9 67.7,58.9 66.4,56.7 		"/>
		<linearGradient id="XMLID_30_" gradientUnits="userSpaceOnUse" x1="32.1297" y1="50.8184" x2="51.9055" y2="63.4838">
			<stop  offset="3.230187e-007" style="stop-color:#114F55"/>
			<stop  offset="0.2213" style="stop-color:#396E58"/>
			<stop  offset="0.4558" style="stop-color:#5A8E52"/>
			<stop  offset="0.6712" style="stop-color:#73A949"/>
			<stop  offset="0.8584" style="stop-color:#83BB42"/>
			<stop  offset="0.9964" style="stop-color:#8AC640"/>
		</linearGradient>
		<path id="XMLID_375_" class="st3" d="M81.9,39.2l-0.1,0.1L73,53.9l-0.7,1.2l0,0.1l-4.5-7.6l-4-6.7c-0.3-0.7-0.2-1.6,0.2-2.3
			l0.7-1.2l-3.5-5.8L59.7,34l0-0.1l-2.6,4.5c-0.6,1-0.5,2.1,0,3.1l5.6,9.2l1.4,2.3l1.3,2.1l1,1.6l1.3,2.2l1.1,1.9l0.1,0.1L68.2,62
			l-1.8,2.9l0,0c0,0,0,0,0,0L47.6,96.2c-0.1,0.2-0.2,0.3-0.3,0.4l-0.1,0.2c-0.3,0.5-0.6,1-0.9,1.5c-0.4,0.7-1.5,1.3-2.3,1.4
			C31,99.8,4.5,99.8,3.4,99.8h0c0.1-0.1,31.3-54.3,31.6-54.6c0.9,1.4,5.6,9.3,8.3,13.6c0.9,1.4,0.9,3.2,0,4.6
			c-3.6,5.9-13,21.1-13.4,21.9c0,0,4.3,0.2,6.1-0.1c0.6-0.1,1.2-0.8,1.6-1.5l0,0l0,0l0.1-0.2l0.2-0.3c0.1-0.1,0.3-0.5,0.6-0.9
			l0.2-0.4l12.6-21.1l-1.2-1.9l-4-6.6l-7.9-13l-0.1-0.1l1.4-2.4L60.1,1.3l0,0.1l3.4,5.9L81.9,39.2z"/>
	</g>
	<g id="XMLID_302_">
		<path id="XMLID_303_" class="st0" d="M303.1,87.4h2v7.4c0,1.1,0.3,1.9,0.8,2.5c0.5,0.6,1.3,0.8,2.3,0.8c1,0,1.8-0.3,2.3-0.8
			c0.5-0.6,0.8-1.4,0.8-2.5v-7.4h2V95c0,1.6-0.4,2.9-1.2,3.7c-0.8,0.8-2.1,1.2-3.8,1.2s-2.9-0.4-3.8-1.2c-0.8-0.8-1.2-2-1.2-3.7
			V87.4z"/>
		<path id="XMLID_305_" class="st0" d="M316.5,99.6v-7.9h1.7V93c0.4-0.5,0.8-0.9,1.3-1.2c0.5-0.2,1.1-0.4,1.8-0.4
			c0.6,0,1.1,0.1,1.5,0.3c0.4,0.2,0.7,0.5,1,0.8c0.1,0.2,0.2,0.5,0.3,0.8c0.1,0.3,0.1,0.8,0.1,1.5v4.8h-1.8v-4.1
			c0-1-0.1-1.7-0.4-2.1c-0.3-0.3-0.7-0.5-1.3-0.5c-0.4,0-0.8,0.1-1.1,0.2c-0.3,0.2-0.6,0.4-0.8,0.7c-0.1,0.2-0.2,0.4-0.3,0.7
			c-0.1,0.3-0.1,0.8-0.1,1.4v3.6H316.5z"/>
		<path id="XMLID_307_" class="st0" d="M327.5,99.6V86.7h1.8v12.9H327.5z"/>
		<path id="XMLID_309_" class="st0" d="M340.3,95.9H334c0,0.7,0.3,1.3,0.7,1.7c0.4,0.4,0.9,0.6,1.6,0.6c0.6,0,1.1-0.1,1.5-0.4
			c0.4-0.2,0.7-0.6,1-1.2l1.5,0.8c-0.4,0.8-1,1.4-1.6,1.8s-1.4,0.6-2.3,0.6c-1.3,0-2.3-0.4-3-1.2s-1.1-1.8-1.1-3.1
			c0-1.2,0.4-2.3,1.2-3c0.8-0.8,1.8-1.2,3-1.2c1.3,0,2.3,0.4,3,1.1s1.1,1.7,1.1,3.1V95.9z M338.4,94.7c-0.1-0.6-0.3-1-0.6-1.3
			c-0.4-0.3-0.9-0.4-1.5-0.4c-0.6,0-1.1,0.1-1.4,0.4s-0.6,0.7-0.8,1.3H338.4z"/>
		<path id="XMLID_312_" class="st0" d="M350.4,99.6h-1.8v-1c-0.3,0.5-0.7,0.8-1.1,1c-0.4,0.2-0.9,0.3-1.5,0.3c-1.1,0-2-0.4-2.6-1.1
			c-0.6-0.8-1-1.8-1-3.1c0-1.3,0.3-2.3,1-3c0.7-0.8,1.5-1.2,2.6-1.2c0.6,0,1.2,0.1,1.7,0.4c0.5,0.3,0.8,0.7,1,1.2v-1.3h1.8V99.6z
			 M348.7,95.6c0-0.8-0.2-1.4-0.6-1.9c-0.4-0.5-0.9-0.7-1.6-0.7c-0.7,0-1.2,0.2-1.6,0.7c-0.4,0.5-0.6,1.1-0.6,1.9
			c0,0.8,0.2,1.5,0.6,1.9c0.4,0.5,0.9,0.7,1.6,0.7c0.6,0,1.2-0.2,1.6-0.7C348.5,97.1,348.7,96.4,348.7,95.6z"/>
		<path id="XMLID_334_" class="st0" d="M352.9,98.2l1.5-0.8c0.1,0.4,0.3,0.7,0.6,0.9s0.7,0.3,1.2,0.3c0.4,0,0.7-0.1,1-0.3
			c0.2-0.2,0.3-0.4,0.3-0.8c0-0.4-0.4-0.8-1.2-1.1c-0.3-0.1-0.5-0.2-0.6-0.2c-0.8-0.3-1.4-0.7-1.8-1.1c-0.3-0.4-0.5-0.8-0.5-1.3
			c0-0.7,0.3-1.3,0.8-1.7c0.6-0.4,1.3-0.7,2.2-0.7c0.6,0,1.1,0.1,1.6,0.3c0.4,0.2,0.8,0.5,1,1l-1.3,0.9c-0.1-0.2-0.3-0.4-0.5-0.6
			c-0.2-0.1-0.5-0.2-0.8-0.2c-0.3,0-0.6,0.1-0.8,0.2c-0.2,0.2-0.3,0.4-0.3,0.7c0,0.4,0.5,0.8,1.4,1.1c0.3,0.1,0.5,0.2,0.7,0.3
			c0.7,0.3,1.2,0.6,1.6,1c0.3,0.4,0.5,0.8,0.5,1.4c0,0.8-0.3,1.4-0.9,1.9c-0.6,0.4-1.4,0.7-2.4,0.7c-0.8,0-1.4-0.1-1.9-0.4
			S353.2,98.8,352.9,98.2z"/>
		<path id="XMLID_336_" class="st0" d="M361.9,99.6V86.7h1.7V93c0.4-0.5,0.8-0.9,1.3-1.2c0.5-0.2,1.1-0.4,1.8-0.4
			c0.6,0,1.1,0.1,1.5,0.3c0.4,0.2,0.7,0.5,1,0.8c0.1,0.2,0.2,0.5,0.3,0.8c0.1,0.3,0.1,0.8,0.1,1.5v4.8h-1.8v-4.1
			c0-1-0.1-1.7-0.4-2.1c-0.3-0.3-0.7-0.5-1.3-0.5c-0.4,0-0.8,0.1-1.1,0.2c-0.3,0.2-0.6,0.4-0.8,0.7c-0.1,0.2-0.2,0.4-0.3,0.7
			c-0.1,0.3-0.1,0.8-0.1,1.4v3.6H361.9z"/>
		<path id="XMLID_342_" class="st0" d="M381.5,99.6V94l-4.1-6.6h2.1l2.6,4.1c0.1,0.1,0.1,0.2,0.2,0.4c0.1,0.2,0.2,0.4,0.3,0.6
			c0.1-0.2,0.2-0.4,0.2-0.5c0.1-0.2,0.2-0.3,0.3-0.5l2.6-4.1h2l-4.2,6.6v5.6H381.5z"/>
		<path id="XMLID_344_" class="st0" d="M387.2,95.7c0-0.6,0.1-1.1,0.3-1.6c0.2-0.5,0.5-1,0.9-1.4c0.4-0.4,0.9-0.7,1.4-0.9
			s1.1-0.3,1.7-0.3c0.6,0,1.2,0.1,1.7,0.3c0.5,0.2,1,0.5,1.4,0.9c0.4,0.4,0.7,0.9,0.9,1.4c0.2,0.5,0.3,1,0.3,1.6
			c0,0.6-0.1,1.1-0.3,1.6c-0.2,0.5-0.5,1-0.9,1.4c-0.4,0.4-0.9,0.7-1.4,0.9c-0.5,0.2-1.1,0.3-1.7,0.3c-0.6,0-1.1-0.1-1.6-0.3
			c-0.5-0.2-1-0.5-1.4-0.9c-0.4-0.4-0.7-0.9-0.9-1.4C387.3,96.8,387.2,96.3,387.2,95.7z M394,95.7c0-0.7-0.2-1.4-0.7-1.9
			c-0.5-0.5-1-0.8-1.7-0.8c-0.7,0-1.3,0.3-1.7,0.8c-0.5,0.5-0.7,1.1-0.7,1.9c0,0.7,0.2,1.4,0.7,1.9c0.5,0.5,1,0.8,1.7,0.8
			c0.7,0,1.3-0.3,1.7-0.8C393.8,97,394,96.4,394,95.7z"/>
		<path id="XMLID_347_" class="st0" d="M400.4,91.7v4.4c0,0.8,0.2,1.3,0.5,1.6s0.8,0.5,1.5,0.5c0.7,0,1.2-0.2,1.5-0.5
			s0.5-0.9,0.5-1.6v-4.4h1.8v3.9c0,1.5-0.3,2.6-0.9,3.3s-1.6,1-2.9,1c-1.3,0-2.3-0.3-2.9-1c-0.6-0.7-0.9-1.8-0.9-3.3v-3.9H400.4z"/>
		<path id="XMLID_349_" class="st0" d="M411.4,93c0.2-0.5,0.5-0.9,0.8-1.2c0.3-0.2,0.7-0.4,1.2-0.4c0.3,0,0.5,0,0.8,0.1
			c0.2,0.1,0.5,0.1,0.7,0.3l-0.6,1.5c-0.2-0.1-0.3-0.2-0.5-0.2c-0.2-0.1-0.4-0.1-0.6-0.1c-0.6,0-1,0.2-1.3,0.7
			c-0.3,0.5-0.4,1.3-0.4,2.4v3.5h-1.8v-7.9h1.8V93z"/>
		<path id="XMLID_372_" class="st0" d="M430.9,99.6l-1.4-3.1h-4.8l-1.4,3.1h-2.1l5.9-12.7l5.9,12.7H430.9z M425.4,94.8h3.4l-1.2-2.8
			c-0.1-0.2-0.1-0.4-0.2-0.6c-0.1-0.2-0.2-0.5-0.2-0.8c-0.1,0.3-0.1,0.5-0.2,0.7c-0.1,0.2-0.2,0.4-0.2,0.6L425.4,94.8z"/>
		<path id="XMLID_407_" class="st0" d="M434.8,99.6v-7.9h1.7V93c0.4-0.5,0.8-0.9,1.3-1.2c0.5-0.2,1.1-0.4,1.8-0.4
			c0.6,0,1.1,0.1,1.5,0.3c0.4,0.2,0.7,0.5,1,0.8c0.1,0.2,0.2,0.5,0.3,0.8c0.1,0.3,0.1,0.8,0.1,1.5v4.8h-1.8v-4.1
			c0-1-0.1-1.7-0.4-2.1c-0.3-0.3-0.7-0.5-1.3-0.5c-0.4,0-0.8,0.1-1.1,0.2c-0.3,0.2-0.6,0.4-0.8,0.7c-0.1,0.2-0.2,0.4-0.3,0.7
			c-0.1,0.3-0.1,0.8-0.1,1.4v3.6H434.8z"/>
		<path id="XMLID_409_" class="st0" d="M453.1,99.6h-1.8v-1c-0.3,0.5-0.7,0.8-1.1,1c-0.4,0.2-0.9,0.3-1.5,0.3c-1.1,0-2-0.4-2.6-1.1
			c-0.6-0.8-1-1.8-1-3.1c0-1.3,0.3-2.3,1-3c0.7-0.8,1.5-1.2,2.6-1.2c0.6,0,1.2,0.1,1.7,0.4c0.5,0.3,0.8,0.7,1,1.2v-1.3h1.8V99.6z
			 M451.3,95.6c0-0.8-0.2-1.4-0.6-1.9c-0.4-0.5-0.9-0.7-1.6-0.7c-0.7,0-1.2,0.2-1.6,0.7c-0.4,0.5-0.6,1.1-0.6,1.9
			c0,0.8,0.2,1.5,0.6,1.9c0.4,0.5,0.9,0.7,1.6,0.7c0.6,0,1.2-0.2,1.6-0.7C451.1,97.1,451.3,96.4,451.3,95.6z"/>
		<path id="XMLID_412_" class="st0" d="M456.5,99.6V86.7h1.8v12.9H456.5z"/>
		<path id="XMLID_414_" class="st0" d="M463.1,103.3h-1.9l2.2-4.4l-2.9-7.2h2l1.4,4.1c0.1,0.2,0.2,0.5,0.2,0.8
			c0.1,0.3,0.1,0.5,0.2,0.8c0.1-0.3,0.2-0.7,0.5-1.3l0-0.1l1.9-4.2h2L463.1,103.3z"/>
		<path id="XMLID_416_" class="st0" d="M471.1,99.6v-6.3h-1.4v-1.6h1.4v-3h1.8v3h1.4v1.6h-1.4v6.3H471.1z"/>
		<path id="XMLID_418_" class="st0" d="M476.5,88.3c0-0.3,0.1-0.6,0.3-0.8c0.2-0.2,0.5-0.3,0.8-0.3c0.3,0,0.6,0.1,0.8,0.3
			c0.2,0.2,0.3,0.5,0.3,0.8c0,0.3-0.1,0.6-0.3,0.8c-0.2,0.2-0.5,0.3-0.8,0.3c-0.3,0-0.6-0.1-0.8-0.3
			C476.6,88.9,476.5,88.6,476.5,88.3z M476.7,99.6v-7.9h1.8v7.9H476.7z"/>
		<path id="XMLID_421_" class="st0" d="M487.9,94c-0.3-0.3-0.6-0.5-1-0.7c-0.4-0.2-0.8-0.2-1.2-0.2c-0.7,0-1.3,0.2-1.8,0.7
			c-0.4,0.5-0.7,1.1-0.7,1.9c0,0.8,0.2,1.5,0.7,1.9c0.4,0.5,1.1,0.7,1.9,0.7c0.4,0,0.8-0.1,1.2-0.2c0.3-0.2,0.6-0.4,0.9-0.7v2.1
			c-0.3,0.2-0.7,0.3-1.1,0.4c-0.4,0.1-0.8,0.1-1.2,0.1c-1.2,0-2.2-0.4-3-1.2c-0.8-0.8-1.2-1.8-1.2-3.1c0-1.3,0.4-2.3,1.2-3.1
			c0.8-0.8,1.9-1.2,3.2-1.2c0.4,0,0.8,0,1.1,0.1c0.3,0.1,0.7,0.2,1,0.4V94z"/>
		<path id="XMLID_423_" class="st0" d="M489.6,98.2l1.5-0.8c0.1,0.4,0.3,0.7,0.6,0.9s0.7,0.3,1.2,0.3c0.4,0,0.7-0.1,1-0.3
			c0.2-0.2,0.3-0.4,0.3-0.8c0-0.4-0.4-0.8-1.2-1.1c-0.3-0.1-0.5-0.2-0.6-0.2c-0.8-0.3-1.4-0.7-1.8-1.1c-0.3-0.4-0.5-0.8-0.5-1.3
			c0-0.7,0.3-1.3,0.8-1.7c0.6-0.4,1.3-0.7,2.2-0.7c0.6,0,1.1,0.1,1.6,0.3c0.4,0.2,0.8,0.5,1,1l-1.3,0.9c-0.1-0.2-0.3-0.4-0.5-0.6
			c-0.2-0.1-0.5-0.2-0.8-0.2c-0.3,0-0.6,0.1-0.8,0.2c-0.2,0.2-0.3,0.4-0.3,0.7c0,0.4,0.5,0.8,1.4,1.1c0.3,0.1,0.5,0.2,0.7,0.3
			c0.7,0.3,1.2,0.6,1.6,1c0.3,0.4,0.5,0.8,0.5,1.4c0,0.8-0.3,1.4-0.9,1.9c-0.6,0.4-1.4,0.7-2.4,0.7c-0.8,0-1.4-0.1-1.9-0.4
			S489.9,98.8,489.6,98.2z"/>
	</g>
	<g id="XMLID_393_">
		<path id="XMLID_394_" class="st0" d="M291.2,73.2L315,10.6h15.3l24.2,62.6h-15.2l-5.1-13.3h-24.3l-4.4,13.3H291.2z M331,49.4
			l-7-20.2c-0.2-0.6-0.5-1.6-0.8-3.1c-0.3-1.5-0.6-3.2-1-5.3c-0.4,2-0.7,3.8-1.1,5.5c-0.3,1.6-0.6,2.7-0.8,3.2l-6.8,20H331z"/>
		<path id="XMLID_397_" class="st0" d="M361.1,73.2V10.6h15.4c8.2,0,14.3,1.6,18.2,4.7s5.9,8,5.9,14.5c0,6.1-2,10.8-5.9,14.3
			s-9.4,5.2-16.4,5.2h-3.7v23.9H361.1z M374.5,38.9h1.9c3.7,0,6.3-0.8,8-2.3c1.7-1.5,2.5-3.9,2.5-7.3c0-3.1-0.8-5.3-2.5-6.7
			c-1.7-1.4-4.3-2.1-8-2.1h-1.9V38.9z"/>
		<path id="XMLID_400_" class="st0" d="M409.8,73.2V10.6h15.4c8.2,0,14.3,1.6,18.2,4.7c3.9,3.1,5.9,8,5.9,14.5
			c0,6.1-2,10.8-5.9,14.3s-9.4,5.2-16.4,5.2h-3.7v23.9H409.8z M423.3,38.9h1.9c3.7,0,6.3-0.8,8-2.3c1.7-1.5,2.5-3.9,2.5-7.3
			c0-3.1-0.8-5.3-2.5-6.7c-1.7-1.4-4.3-2.1-8-2.1h-1.9V38.9z"/>
		<path id="XMLID_403_" class="st0" d="M454.5,65.3l7.4-8.4c0.9,2.3,2.5,4.1,4.5,5.5s4.4,2,7,2c3.1,0,5.6-0.7,7.4-2.2
			c1.8-1.5,2.7-3.5,2.7-6c0-3-3-5.9-9.1-8.9c-2-0.9-3.5-1.7-4.7-2.3c-5.5-2.9-9.3-5.6-11.4-8.4s-3.2-6-3.2-9.7c0-5.2,2-9.4,6.1-12.7
			c4.1-3.3,9.4-5,15.9-5c3.8,0,7.1,0.7,9.8,2c2.8,1.3,5.2,3.4,7.3,6.2l-7.9,7.6c-0.9-1.8-2.2-3.2-3.7-4.1c-1.6-0.9-3.4-1.3-5.6-1.3
			c-2.7,0-4.8,0.7-6.4,2c-1.6,1.3-2.4,3-2.4,5.2c0,3.3,3.2,6.3,9.7,9.1c1.3,0.5,2.3,1,3,1.3c5.3,2.4,9.2,5.2,11.8,8.2
			c2.6,3.1,3.8,6.5,3.8,10.4c0,5.9-2,10.6-6,14.1s-9.4,5.2-16.1,5.2c-4.8,0-8.9-0.8-12.3-2.5S456.2,68.4,454.5,65.3z"/>
	</g>
	<linearGradient id="XMLID_31_" gradientUnits="userSpaceOnUse" x1="127.1408" y1="93.7976" x2="285.5062" y2="93.7976">
		<stop  offset="1.640730e-007" style="stop-color:#114F55"/>
		<stop  offset="1" style="stop-color:#8AC640"/>
	</linearGradient>
	<polygon id="XMLID_370_" class="st4" points="134.4,100 280.6,100 285.5,87.6 127.1,87.6 	"/>
</g>
</svg>
