<?xml version="1.0"?>
<svg xmlns="http://www.w3.org/2000/svg" xmlns:xlink="http://www.w3.org/1999/xlink" xmlns:lucid="lucid" width="607" height="538.6" viewBox="0 0 607 538.6"><g transform="translate(-340 -240)" lucid:page-tab-id="0_0"><path d="M711.4 534.08v-83.16c0-4.08-3.67-10.92-8.3-10.92h-144c-4.62 0-9.06 6.84-9.06 10.92v83.16c-16.2 17.28-15.44 17.28-15.44 17.28 0 4.92 4.44 8.64 10.23 8.64h172.55c5.8 0 10.23-4.08 10.23-8.64l-16.2-17.28zM644.4 552.8h-30.1c-1.55 0-3.1-.72-3.1-1.44l3.48-5.64c0-.72 1.16-1.2 2.7-1.2h23.93c1.16 0 2.32.48 2.32 1.2l3.86 5.64c0 1.08-1.53 1.44-3.08 1.44zm59.83-19.2H557.18v-81.96c0-1.92 1.93-4.56 4.06-4.56H700.6c2.1 0 3.65 2.64 3.65 4.56v81.96z" stroke="#000" stroke-opacity="0" fill="#2a3282"></path><path d="M570.36 471h121.5v20h-121.5z" fill="none"></path><use xlink:href="#a" transform="matrix(1,0,0,1,570.3555611411334,471) translate(16.5 14.4)"></use><use xlink:href="#b" transform="matrix(1,0,0,1,570.3555611411334,471) translate(69.5 14.4)"></use><use xlink:href="#c" transform="matrix(1,0,0,1,570.3555611411334,471) translate(26.525 36)"></use><use xlink:href="#d" transform="matrix(1,0,0,1,570.3555611411334,471) translate(67.525 36)"></use><g filter="url(#e)"><path d="M800 282c0-1.1.9-2 2-2h84c1.1 0 2 .9 2 2v124c0 1.1-.9 2-2 2h-84c-1.1 0-2-.9-2-2z" fill="#fff"></path><path d="M814 336v12h60v-12zm12 9h-6v-6h6zM814 300v12h60v-12zm12 9h-6v-6h6zM814 318v12h60v-12zm12 9h-6v-6h6z" fill="#757575"></path><use xlink:href="#f" transform="matrix(1,0,0,1,800,361) translate(19.089900390625004 20.24462890625)"></use><use xlink:href="#g" transform="matrix(1,0,0,1,800,361) translate(25.59738720703125 35.87041015625)"></use></g><path d="M480 368c0 6.63-26.86 12-60 12s-60-5.37-60-12v-96c0-6.63 26.86-12 60-12s60 5.37 60 12z" stroke="#000" stroke-width="2" fill="#fff"></path><path d="M480 272c0 6.63-26.86 12-60 12s-60-5.37-60-12" stroke="#000" stroke-width="2" fill="none"></path><use xlink:href="#h" transform="matrix(1,0,0,1,365,289) translate(16.525 46.6)"></use><path d="M516.52 496.96h33.52v2h-35.52v-79.18h2zm0-98.78h-2V321h-15.28v-2h17.28z"></path><path></path><path d="M498.5 324.64L484.24 320l14.26-4.64z"></path><path d="M499.5 326l-18.5-6 18.5-6zm-12.03-6l10.03 3.26v-6.52z"></path><use xlink:href="#i" transform="matrix(1,0,0,1,489.5702965,398.1799999976295) translate(0 14.4)"></use><path d="M708.73 442.4h-2v-54.34h2zm73.03-97.4h-73.03v21.46h-2V343h75.03zM708.73 443.74l-1-1.33h1zM796.76 344l-14.26 4.64v-9.28z"></path><path d="M800 344l-18.5 6v-12zm-16.5 3.26l10.03-3.26-10.03-3.26z"></path><use xlink:href="#j" transform="matrix(1,0,0,1,658.7516551669838,366.46327901329545) translate(0 14.4)"></use><use xlink:href="#k" transform="matrix(1,0,0,1,658.7516551669838,366.46327901329545) translate(40 14.4)"></use><use xlink:href="#l" transform="matrix(1,0,0,1,658.7516551669838,366.46327901329545) translate(50 14.4)"></use><path d="M895.67 605.28c3.57 0 6.35 2.87 6.35 6.42l24.97 96v5.86c0 3.56-2.88 6.43-6.36 6.43h-74.3c-3.47 0-6.34-2.88-6.34-6.44v-5.27l28-96.6c0-3.55 2.8-6.42 6.36-6.42z" fill="#4f4f4f"></path><path d="M920.64 600c3.48 0 6.35 2.87 6.35 6.42v101.8c0 3.55-2.88 6.42-6.36 6.42h-74.3c-3.47 0-6.34-2.87-6.34-6.42v-101.8c0-3.55 2.87-6.42 6.35-6.42z" fill="#7d7c7c"></path><path d="M913.4 648.5h-59.9v-7.08h59.9zm0-11.97h-59.9v-7.07h59.9zm0-12.53h-59.9v-7.07h59.9z" fill="#fff"></path><use xlink:href="#m" transform="matrix(1,0,0,1,840,720) translate(25.5 14.4)"></use><use xlink:href="#n" transform="matrix(1,0,0,1,840,720) translate(17.049999999999997 36)"></use><path d="M776.7 669h45.06v2H774.7v-75.2h2zm0-94.8h-2V501h-63.3v-2h65.3z"></path><path></path><path d="M836.76 670l-14.26 4.64v-9.28z"></path><path d="M840 670l-18.5 6v-12zm-16.5 3.26l10.03-3.26-10.03-3.26z"></path><use xlink:href="#o" transform="matrix(1,0,0,1,721.722396,574.2) translate(0 14.4)"></use><g filter="url(#e)"><path d="M376 582c0-1.1.9-2 2-2h84c1.1 0 2 .9 2 2v124c0 1.1-.9 2-2 2h-84c-1.1 0-2-.9-2-2z" fill="#fff"></path><path d="M390 636v12h60v-12zm12 9h-6v-6h6zM390 600v12h60v-12zm12 9h-6v-6h6zM390 618v12h60v-12zm12 9h-6v-6h6z" fill="#757575"></path><use xlink:href="#p" transform="matrix(1,0,0,1,376,661) translate(11.26073291015625 28.05751953125)"></use><use xlink:href="#q" transform="matrix(1,0,0,1,376,661) translate(46.80938525390625 28.05751953125)"></use></g><path d="M565.67 645h-83.43v-2h81.43v-22.87h2zm0-46.47h-2V560h2z"></path><path></path><path d="M481.5 648.64L467.24 644l14.26-4.64z"></path><path d="M482.5 650l-18.5-6 18.5-6zm-12.03-6l10.03 3.26v-6.52z"></path><g><use xlink:href="#r" transform="matrix(1,0,0,1,474.76666666666665,598.5333333333334) translate(0 14.4)"></use><use xlink:href="#s" transform="matrix(1,0,0,1,474.76666666666665,598.5333333333334) translate(41 14.4)"></use><use xlink:href="#k" transform="matrix(1,0,0,1,474.76666666666665,598.5333333333334) translate(121.85000000000001 14.4)"></use><use xlink:href="#l" transform="matrix(1,0,0,1,474.76666666666665,598.5333333333334) translate(131.85000000000002 14.4)"></use></g><defs><path d="M160-131c35 5 61 23 61 61C221 17 115-2 30 0v-248c76 3 177-17 177 60 0 33-19 50-47 57zm-97-11c50-1 110 9 110-42 0-47-63-36-110-37v79zm0 115c55-2 124 14 124-45 0-56-70-42-124-44v89" id="t"></path><path d="M205 0l-28-72H64L36 0H1l101-248h38L239 0h-34zm-38-99l-47-123c-12 45-31 82-46 123h93" id="u"></path><path d="M185-189c-5-48-123-54-124 2 14 75 158 14 163 119 3 78-121 87-175 55-17-10-28-26-33-46l33-7c5 56 141 63 141-1 0-78-155-14-162-118-5-82 145-84 179-34 5 7 8 16 11 25" id="v"></path><path d="M30 0v-248h187v28H63v79h144v27H63v87h162V0H30" id="w"></path><g id="a"><use transform="matrix(0.05,0,0,0.05,0,0)" xlink:href="#t"></use><use transform="matrix(0.05,0,0,0.05,12,0)" xlink:href="#u"></use><use transform="matrix(0.05,0,0,0.05,24,0)" xlink:href="#v"></use><use transform="matrix(0.05,0,0,0.05,36,0)" xlink:href="#w"></use></g><g id="b"><use transform="matrix(0.05,0,0,0.05,0,0)" xlink:href="#v"></use><use transform="matrix(0.05,0,0,0.05,12,0)" xlink:href="#u"></use><use transform="matrix(0.05,0,0,0.05,24,0)" xlink:href="#v"></use></g><g id="c"><use transform="matrix(0.05,0,0,0.05,0,0)" xlink:href="#v"></use><use transform="matrix(0.05,0,0,0.05,12,0)" xlink:href="#u"></use><use transform="matrix(0.05,0,0,0.05,24,0)" xlink:href="#v"></use></g><path d="M0 4l72-265h28L28 4H0" id="x"></path><path d="M63-220v92h138v28H63V0H30v-248h175v28H63" id="y"></path><g id="d"><use transform="matrix(0.05,0,0,0.05,0,0)" xlink:href="#x"></use><use transform="matrix(0.05,0,0,0.05,5,0)" xlink:href="#u"></use><use transform="matrix(0.05,0,0,0.05,17,0)" xlink:href="#y"></use></g><path d="M1288 0h-193L362-1122V0H169v-1456h193l735 1127v-1127h191V0" id="z"></path><path d="M599-131c141 0 220-65 285-146l113 88C906-50 770 20 589 20 281 21 93-214 93-545c0-223 93-397 233-485 74-48 154-72 240-72 300 2 449 218 445 537v77H278c0 197 129 357 321 357zm227-509c-3-180-88-310-260-310-170 0-264 140-282 310h542" id="A"></path><path d="M456 20C285 20 205-92 206-268v-671H9v-143h197v-262h185v262h202v143H391v671c-9 125 92 149 207 118V0c-49 13-96 20-142 20" id="B"></path><path d="M1098-255l208-827h185L1176 0h-150L763-820 507 0H357L43-1082h184l213 810 252-810h149" id="C"></path><path d="M584 20C278 26 81-227 91-551c10-320 175-545 491-551 308-5 503 247 494 573-9 322-175 543-492 549zm-2-970c-208 0-305 185-305 421 0 216 106 398 307 398 211 0 307-186 307-420 0-214-109-399-309-399" id="D"></path><path d="M663-916c-163-27-288 18-338 148V0H140v-1082h180l3 125c61-97 147-145 258-145 36 0 63 5 82 14v172" id="E"></path><path d="M442-501L326-380V0H141v-1536h185v929c135-169 291-317 436-475h225L566-630 1036 0H819" id="F"></path><g id="f"><use transform="matrix(0.0065107421875,0,0,0.0065107421875,0,0)" xlink:href="#z"></use><use transform="matrix(0.0065107421875,0,0,0.0065107421875,9.50568359375,0)" xlink:href="#A"></use><use transform="matrix(0.0065107421875,0,0,0.0065107421875,16.5698388671875,0)" xlink:href="#B"></use><use transform="matrix(0.0065107421875,0,0,0.0065107421875,20.925525390624998,0)" xlink:href="#C"></use><use transform="matrix(0.0065107421875,0,0,0.0065107421875,30.9455576171875,0)" xlink:href="#D"></use><use transform="matrix(0.0065107421875,0,0,0.0065107421875,38.550104492187494,0)" xlink:href="#E"></use><use transform="matrix(0.0065107421875,0,0,0.0065107421875,43.06204882812499,0)" xlink:href="#F"></use></g><path d="M1222-777c17 480-206 763-650 777H169v-1456h411c408 9 627 269 642 679zm-190 4c3-312-149-522-447-525H361v1141h202c308 0 473-209 469-531v-85" id="G"></path><path d="M341 0H156v-1082h185V0zm-91-1264c-68 0-108-42-109-105 0-62 41-107 109-107s110 44 110 107-42 105-110 105" id="H"></path><path d="M497-251l268-831h189L566 0H425L33-1082h189" id="I"></path><path d="M538-131c121 0 232-49 232-156 0-50-20-88-56-117-73-60-334-92-420-143-92-55-162-110-162-238 0-190 192-317 400-317 223 0 414 129 413 338H759c0-108-110-186-227-186-119 0-215 53-215 159 0 45 18 78 53 101 76 52 331 90 416 139 98 57 169 115 169 251C955-92 760 20 538 20c-176 0-314-68-386-174-38-55-57-115-57-179h185c6 129 116 202 258 202" id="J"></path><g id="g"><use transform="matrix(0.0065107421875,0,0,0.0065107421875,0,0)" xlink:href="#G"></use><use transform="matrix(0.0065107421875,0,0,0.0065107421875,8.743926757812499,0)" xlink:href="#E"></use><use transform="matrix(0.0065107421875,0,0,0.0065107421875,13.255871093749999,0)" xlink:href="#H"></use><use transform="matrix(0.0065107421875,0,0,0.0065107421875,16.4917099609375,0)" xlink:href="#I"></use><use transform="matrix(0.0065107421875,0,0,0.0065107421875,22.8657265625,0)" xlink:href="#A"></use><use transform="matrix(0.0065107421875,0,0,0.0065107421875,29.9298818359375,0)" xlink:href="#J"></use></g><filter id="e" filterUnits="objectBoundingBox" x="-.02" y="0" width="1.03" height="1.02"><feOffset result="offOut" in="SourceAlpha" dy="1"></feOffset><feGaussianBlur result="blurOut" in="offOut" stdDeviation=".75"></feGaussianBlur><feColorMatrix result="colorOut" in="blurOut" values="0 0 0 0 0 0 0 0 0 0 0 0 0 0 0 0 0 0 0.4 0"></feColorMatrix><feBlend in="SourceGraphic" in2="colorOut"></feBlend></filter><path d="M30-248c118-7 216 8 213 122C240-48 200 0 122 0H30v-248zM63-27c89 8 146-16 146-99s-60-101-146-95v194" id="K"></path><path d="M141-36C126-15 110 5 73 4 37 3 15-17 15-53c-1-64 63-63 125-63 3-35-9-54-41-54-24 1-41 7-42 31l-33-3c5-37 33-52 76-52 45 0 72 20 72 64v82c-1 20 7 32 28 27v20c-31 9-61-2-59-35zM48-53c0 20 12 33 32 33 41-3 63-29 60-74-43 2-92-5-92 41" id="L"></path><path d="M59-47c-2 24 18 29 38 22v24C64 9 27 4 27-40v-127H5v-23h24l9-43h21v43h35v23H59v120" id="M"></path><path d="M115-194c53 0 69 39 70 98 0 66-23 100-70 100C84 3 66-7 56-30L54 0H23l1-261h32v101c10-23 28-34 59-34zm-8 174c40 0 45-34 45-75 0-40-5-75-45-74-42 0-51 32-51 76 0 43 10 73 51 73" id="N"></path><path d="M135-143c-3-34-86-38-87 0 15 53 115 12 119 90S17 21 10-45l28-5c4 36 97 45 98 0-10-56-113-15-118-90-4-57 82-63 122-42 12 7 21 19 24 35" id="O"></path><path d="M100-194c63 0 86 42 84 106H49c0 40 14 67 53 68 26 1 43-12 49-29l28 8c-11 28-37 45-77 45C44 4 14-33 15-96c1-61 26-98 85-98zm52 81c6-60-76-77-97-28-3 7-6 17-6 28h103" id="P"></path><g id="h"><use transform="matrix(0.05,0,0,0.05,0,0)" xlink:href="#K"></use><use transform="matrix(0.05,0,0,0.05,12.950000000000001,0)" xlink:href="#L"></use><use transform="matrix(0.05,0,0,0.05,22.950000000000003,0)" xlink:href="#M"></use><use transform="matrix(0.05,0,0,0.05,27.950000000000003,0)" xlink:href="#L"></use><use transform="matrix(0.05,0,0,0.05,37.95,0)" xlink:href="#N"></use><use transform="matrix(0.05,0,0,0.05,47.95,0)" xlink:href="#L"></use><use transform="matrix(0.05,0,0,0.05,57.95,0)" xlink:href="#O"></use><use transform="matrix(0.05,0,0,0.05,66.95,0)" xlink:href="#P"></use></g><path d="M140-251c81 0 123 46 123 126C263-46 219 4 140 4 59 4 17-45 17-125s42-126 123-126zm0 227c63 0 89-41 89-101s-29-99-89-99c-61 0-89 39-89 99S79-25 140-24" id="Q"></path><path d="M212-179c-10-28-35-45-73-45-59 0-87 40-87 99 0 60 29 101 89 101 43 0 62-24 78-52l27 14C228-24 195 4 139 4 59 4 22-46 18-125c-6-104 99-153 187-111 19 9 31 26 39 46" id="R"></path><g id="i"><use transform="matrix(0.05,0,0,0.05,0,0)" xlink:href="#Q"></use><use transform="matrix(0.05,0,0,0.05,14,0)" xlink:href="#K"></use><use transform="matrix(0.05,0,0,0.05,26.950000000000003,0)" xlink:href="#t"></use><use transform="matrix(0.05,0,0,0.05,38.95,0)" xlink:href="#R"></use></g><path d="M85-194c31 0 48 13 60 33l-1-100h32l1 261h-30c-2-10 0-23-3-31C134-8 116 4 85 4 32 4 16-35 15-94c0-66 23-100 70-100zm9 24c-40 0-46 34-46 75 0 40 6 74 45 74 42 0 51-32 51-76 0-42-9-74-50-73" id="S"></path><g id="j"><use transform="matrix(0.05,0,0,0.05,0,0)" xlink:href="#S"></use><use transform="matrix(0.05,0,0,0.05,10,0)" xlink:href="#L"></use><use transform="matrix(0.05,0,0,0.05,20,0)" xlink:href="#M"></use><use transform="matrix(0.05,0,0,0.05,25,0)" xlink:href="#L"></use></g><use transform="matrix(0.05,0,0,0.05,0,0)" xlink:href="#x" id="k"></use><path d="M96-169c-40 0-48 33-48 73s9 75 48 75c24 0 41-14 43-38l32 2c-6 37-31 61-74 61-59 0-76-41-82-99-10-93 101-131 147-64 4 7 5 14 7 22l-32 3c-4-21-16-35-41-35" id="T"></path><path d="M100-194c62-1 85 37 85 99 1 63-27 99-86 99S16-35 15-95c0-66 28-99 85-99zM99-20c44 1 53-31 53-75 0-43-8-75-51-75s-53 32-53 75 10 74 51 75" id="U"></path><path d="M117-194c89-4 53 116 60 194h-32v-121c0-31-8-49-39-48C34-167 62-67 57 0H25l-1-190h30c1 10-1 24 2 32 11-22 29-35 61-36" id="V"></path><path d="M101-234c-31-9-42 10-38 44h38v23H63V0H32v-167H5v-23h27c-7-52 17-82 69-68v24" id="W"></path><path d="M24-231v-30h32v30H24zM24 0v-190h32V0H24" id="X"></path><path d="M177-190C167-65 218 103 67 71c-23-6-38-20-44-43l32-5c15 47 100 32 89-28v-30C133-14 115 1 83 1 29 1 15-40 15-95c0-56 16-97 71-98 29-1 48 16 59 35 1-10 0-23 2-32h30zM94-22c36 0 50-32 50-73 0-42-14-75-50-75-39 0-46 34-46 75s6 73 46 73" id="Y"></path><g id="l"><use transform="matrix(0.05,0,0,0.05,0,0)" xlink:href="#T"></use><use transform="matrix(0.05,0,0,0.05,9,0)" xlink:href="#U"></use><use transform="matrix(0.05,0,0,0.05,19,0)" xlink:href="#V"></use><use transform="matrix(0.05,0,0,0.05,29,0)" xlink:href="#W"></use><use transform="matrix(0.05,0,0,0.05,34,0)" xlink:href="#X"></use><use transform="matrix(0.05,0,0,0.05,37.95,0)" xlink:href="#Y"></use></g><g id="m"><use transform="matrix(0.05,0,0,0.05,0,0)" xlink:href="#v"></use><use transform="matrix(0.05,0,0,0.05,12,0)" xlink:href="#u"></use><use transform="matrix(0.05,0,0,0.05,24,0)" xlink:href="#v"></use></g><path d="M114-163C36-179 61-72 57 0H25l-1-190h30c1 12-1 29 2 39 6-27 23-49 58-41v29" id="Z"></path><path d="M108 0H70L1-190h34L89-25l56-165h34" id="aa"></path><g id="n"><use transform="matrix(0.05,0,0,0.05,0,0)" xlink:href="#v"></use><use transform="matrix(0.05,0,0,0.05,12,0)" xlink:href="#P"></use><use transform="matrix(0.05,0,0,0.05,22,0)" xlink:href="#Z"></use><use transform="matrix(0.05,0,0,0.05,27.950000000000003,0)" xlink:href="#aa"></use><use transform="matrix(0.05,0,0,0.05,36.95,0)" xlink:href="#P"></use><use transform="matrix(0.05,0,0,0.05,46.95,0)" xlink:href="#Z"></use></g><g id="o"><use transform="matrix(0.05,0,0,0.05,0,0)" xlink:href="#v"></use><use transform="matrix(0.05,0,0,0.05,12,0)" xlink:href="#u"></use><use transform="matrix(0.05,0,0,0.05,24,0)" xlink:href="#v"></use><use transform="matrix(0.05,0,0,0.05,36,0)" xlink:href="#x"></use><use transform="matrix(0.05,0,0,0.05,41,0)" xlink:href="#R"></use><use transform="matrix(0.05,0,0,0.05,53.95,0)" xlink:href="#U"></use><use transform="matrix(0.05,0,0,0.05,63.95,0)" xlink:href="#V"></use><use transform="matrix(0.05,0,0,0.05,73.95,0)" xlink:href="#V"></use><use transform="matrix(0.05,0,0,0.05,83.95,0)" xlink:href="#P"></use><use transform="matrix(0.05,0,0,0.05,93.95,0)" xlink:href="#T"></use><use transform="matrix(0.05,0,0,0.05,102.95,0)" xlink:href="#M"></use></g><path d="M362-157h690V0H169v-1456h193v1299" id="ab"></path><path d="M277-555c0 244 77 420 297 424 127 2 249-93 255-210h175C980-127 805 20 574 20 258 20 81-222 92-562c11-319 164-533 481-540 237-5 426 165 431 392H829c-7-133-115-242-256-240-209 4-296 166-296 395" id="ac"></path><path d="M561-1102c238-4 403 126 403 351v498c0 99 13 178 38 237V0H808c-11-21-19-59-26-114C696-25 593 20 474 20c-199 0-368-130-365-320 4-251 214-359 490-356h180v-85c-1-135-86-212-229-212-115 0-232 67-233 171H131c20-205 206-316 430-320zM294-326c0 117 90 185 207 185 122 0 239-75 278-162v-222H634c-227 0-340 66-340 199" id="ad"></path><path d="M341 0H156v-1536h185V0" id="ae"></path><g id="p"><use transform="matrix(0.0065107421875,0,0,0.0065107421875,0,0)" xlink:href="#ab"></use><use transform="matrix(0.0065107421875,0,0,0.0065107421875,7.174837890625,0)" xlink:href="#D"></use><use transform="matrix(0.0065107421875,0,0,0.0065107421875,14.779384765625,0)" xlink:href="#ac"></use><use transform="matrix(0.0065107421875,0,0,0.0065107421875,21.758900390625,0)" xlink:href="#ad"></use><use transform="matrix(0.0065107421875,0,0,0.0065107421875,29.0118671875,0)" xlink:href="#ae"></use></g><g id="q"><use transform="matrix(0.0065107421875,0,0,0.0065107421875,0,0)" xlink:href="#G"></use><use transform="matrix(0.0065107421875,0,0,0.0065107421875,8.743926757812499,0)" xlink:href="#E"></use><use transform="matrix(0.0065107421875,0,0,0.0065107421875,13.255871093749999,0)" xlink:href="#H"></use><use transform="matrix(0.0065107421875,0,0,0.0065107421875,16.4917099609375,0)" xlink:href="#I"></use><use transform="matrix(0.0065107421875,0,0,0.0065107421875,22.8657265625,0)" xlink:href="#A"></use></g><g id="r"><use transform="matrix(0.05,0,0,0.05,0,0)" xlink:href="#v"></use><use transform="matrix(0.05,0,0,0.05,12,0)" xlink:href="#u"></use><use transform="matrix(0.05,0,0,0.05,24,0)" xlink:href="#v"></use></g><path d="M115-194c55 1 70 41 70 98S169 2 115 4C84 4 66-9 55-30l1 105H24l-1-265h31l2 30c10-21 28-34 59-34zm-8 174c40 0 45-34 45-75s-6-73-45-74c-42 0-51 32-51 76 0 43 10 73 51 73" id="af"></path><path d="M210-169c-67 3-38 105-44 169h-31v-121c0-29-5-50-35-48C34-165 62-65 56 0H25l-1-190h30c1 10-1 24 2 32 10-44 99-50 107 0 11-21 27-35 58-36 85-2 47 119 55 194h-31v-121c0-29-5-49-35-48" id="ag"></path><g id="s"><use transform="matrix(0.05,0,0,0.05,0,0)" xlink:href="#af"></use><use transform="matrix(0.05,0,0,0.05,10,0)" xlink:href="#Z"></use><use transform="matrix(0.05,0,0,0.05,15.949999999999998,0)" xlink:href="#U"></use><use transform="matrix(0.05,0,0,0.05,25.950000000000003,0)" xlink:href="#Y"></use><use transform="matrix(0.05,0,0,0.05,35.95,0)" xlink:href="#Z"></use><use transform="matrix(0.05,0,0,0.05,41.900000000000006,0)" xlink:href="#L"></use><use transform="matrix(0.05,0,0,0.05,51.900000000000006,0)" xlink:href="#ag"></use><use transform="matrix(0.05,0,0,0.05,66.85000000000001,0)" xlink:href="#O"></use></g></defs></g></svg>