<svg version="1.1" xmlns="http://www.w3.org/2000/svg" xmlns:xlink="http://www.w3.org/1999/xlink" x="0px" y="0px" viewBox="0 0 344.7 130.4" style="fill: #013459; width:120px; enable-background:new 0 0 344.7 130.4;" xml:space="preserve" role="img">
	<path d="M37.4,119.2V44.7h18.9l0.2-3.5h-19l-0.1-10.6C37.4,18,40,3.1,52.3,3.1c5.8,0,9.4,2.1,9.4,5.4c0,1.7-1.2,3.2-2.5,4.7
		c-1.6,1.9-3.3,4.1-3.3,7.1c0,4.1,3.8,6.9,9.2,6.9c6.8,0,10.9-4,10.9-10.6C76,7.5,64.4,0,50.1,0c-22.4,0-38,15.2-38,36.9v4.3
		l-12-0.1l0.3,3.6h11.9l-0.2,74.5c0,5.4-0.5,7.2-11.2,7.9l-0.3,0L0,128.8h52.6l0.8-1.6l-0.8,0C38.2,126.4,37.4,124.5,37.4,119.2z"></path>
	<path d="M141.8,118.7c-2.6,1.5-5.2,3-7.4,3c-2.6,0-4-1.5-4-4.2V65.5c0.1-7.2-2.3-13.6-7-18.3c-5.6-5.7-14.1-8.7-24.6-8.7
		c-24.8,0-38.3,18.6-38.3,28.1c0,6.7,5.5,9.1,10.6,9.1c6,0,10.4-3.1,10.4-7.3c0-2.6-2.2-4.2-4.4-6c-2.4-1.8-4.9-3.7-4.9-6.9
		c0-6.1,6.9-11,15.3-11c11.1,0,17.7,7.3,17.7,19.7v13.6C68.9,80.3,55.9,95,55.9,107.9c0,11.2,7.3,22.6,21.1,22.6
		c9.5,0,21.8-2.9,28.1-11.2c0.3,7,5.1,11.2,13.1,11.2c9.5,0,18.9-4.3,25.1-11.5l1.9-2.2L141.8,118.7z M91.9,118.5
		c-5.2,0-10.4-5.6-10.4-18c0-11.3,6.8-16.8,23.4-18.8l0.2,31.2C99.8,116.6,95.2,118.5,91.9,118.5z"></path>
	<path d="M237.2,119.2V65.3c0-17-8.7-26.8-23.9-26.8c-11.8,0-22.7,5.6-31.6,16.2V38.5l-2.2,0l-33.6,3.9l-1.3-0.1v0.3L141,43l3.6,0.3
		v0.3l1.3-0.1c9.7,0.9,10.6,3.3,10.6,9.5v66.2c0,5.3-0.6,7.2-11.4,7.9l-0.4,0l-0.1,1.6h49.1v-1.6l-0.5,0
		c-10.4-0.7-11.6-2.2-11.6-7.9l0.3-59.1l0.3-0.3c4.5-4.5,10-10,17.3-10c8.2,0,12.4,4.8,12.4,14.1v55.2c0,5.7-1,7.2-8.7,7.9l-0.3,0
		l-0.8,1.6h47l0.4-2l-0.6,0C238.3,126.1,237.2,124.6,237.2,119.2z"></path>
	<path d="M344.7,39.1l-19.4,0l-6-18.4l-5.8,18.4l-15.6,0l-2.5-0.3c-3.3-0.4-6.5-0.4-8.9-0.4c-20.1,0-33,10.1-33,25.7
		c0,17.1,14,24.2,26.4,30.4c10.3,5.2,20.1,10.2,20.1,20.1c0,7.4-6.8,12.1-17.4,12.1c-18.9,0-25.2-5.1-30.8-24.7l-1-3.4v25.7l0.3,0.1
		c6.8,3.5,22.9,6.1,32.7,6.1c21.4,0,35.3-10.8,35.3-27.6c0-16.2-13.5-23-25.4-29.1c-10.5-5.4-20.5-10.4-20.5-21
		c0-7.1,4.8-11.4,13.3-11.7c3.3,0,7.9,0.2,11.1,0.7l12,8.7l-6,18.3l16-11.3L335.2,69l-6-18.5L344.7,39.1z"></path>
</svg>
